<mxfile host="app.diagrams.net" modified="2024-04-25T11:54:45.357Z" agent="Mozilla/5.0 (Windows NT 10.0; Win64; x64) AppleWebKit/537.36 (KHTML, like Gecko) Chrome/124.0.0.0 Safari/537.36" etag="h2c2nPPD3LDVqJkiT8Lx" version="24.3.0" type="device">
  <diagram name="Página-1" id="TuxlUlPYsKI8Bl4-QgSv">
    <mxGraphModel dx="1114" dy="600" grid="1" gridSize="10" guides="1" tooltips="1" connect="1" arrows="1" fold="1" page="1" pageScale="1" pageWidth="827" pageHeight="1169" math="0" shadow="0">
      <root>
        <mxCell id="0" />
        <mxCell id="1" parent="0" />
        <mxCell id="S3E6IrGXpBOhaH5SuewV-12" style="edgeStyle=orthogonalEdgeStyle;rounded=0;orthogonalLoop=1;jettySize=auto;html=1;entryX=0.5;entryY=0;entryDx=0;entryDy=0;" edge="1" parent="1" source="S3E6IrGXpBOhaH5SuewV-1" target="S3E6IrGXpBOhaH5SuewV-11">
          <mxGeometry relative="1" as="geometry" />
        </mxCell>
        <mxCell id="S3E6IrGXpBOhaH5SuewV-1" value="" style="ellipse;whiteSpace=wrap;html=1;aspect=fixed;fillColor=#1ba1e2;strokeColor=#006EAF;fontColor=#ffffff;" vertex="1" parent="1">
          <mxGeometry x="380" y="40" width="80" height="80" as="geometry" />
        </mxCell>
        <mxCell id="S3E6IrGXpBOhaH5SuewV-27" style="edgeStyle=orthogonalEdgeStyle;rounded=0;orthogonalLoop=1;jettySize=auto;html=1;entryX=0.5;entryY=0;entryDx=0;entryDy=0;" edge="1" parent="1" source="S3E6IrGXpBOhaH5SuewV-2" target="S3E6IrGXpBOhaH5SuewV-19">
          <mxGeometry relative="1" as="geometry" />
        </mxCell>
        <mxCell id="S3E6IrGXpBOhaH5SuewV-2" value="Formulário de Ajuda" style="rounded=1;whiteSpace=wrap;html=1;fillColor=#b1ddf0;strokeColor=#10739e;" vertex="1" parent="1">
          <mxGeometry x="480" y="520" width="120" height="60" as="geometry" />
        </mxCell>
        <mxCell id="S3E6IrGXpBOhaH5SuewV-18" style="edgeStyle=orthogonalEdgeStyle;rounded=0;orthogonalLoop=1;jettySize=auto;html=1;" edge="1" parent="1" source="S3E6IrGXpBOhaH5SuewV-3" target="S3E6IrGXpBOhaH5SuewV-11">
          <mxGeometry relative="1" as="geometry">
            <mxPoint x="160" y="78" as="targetPoint" />
            <Array as="points">
              <mxPoint x="200" y="470" />
              <mxPoint x="200" y="200" />
            </Array>
          </mxGeometry>
        </mxCell>
        <mxCell id="S3E6IrGXpBOhaH5SuewV-3" value="Login inválido" style="rounded=1;whiteSpace=wrap;html=1;fillColor=#b1ddf0;strokeColor=#10739e;" vertex="1" parent="1">
          <mxGeometry x="240" y="440" width="120" height="60" as="geometry" />
        </mxCell>
        <mxCell id="S3E6IrGXpBOhaH5SuewV-14" style="edgeStyle=orthogonalEdgeStyle;rounded=0;orthogonalLoop=1;jettySize=auto;html=1;" edge="1" parent="1" target="S3E6IrGXpBOhaH5SuewV-3">
          <mxGeometry relative="1" as="geometry">
            <mxPoint x="360" y="320" as="sourcePoint" />
            <mxPoint x="240" y="400" as="targetPoint" />
            <Array as="points">
              <mxPoint x="300" y="320" />
            </Array>
          </mxGeometry>
        </mxCell>
        <mxCell id="S3E6IrGXpBOhaH5SuewV-16" value="Não" style="edgeLabel;html=1;align=center;verticalAlign=middle;resizable=0;points=[];" vertex="1" connectable="0" parent="S3E6IrGXpBOhaH5SuewV-14">
          <mxGeometry x="0.2778" y="3" relative="1" as="geometry">
            <mxPoint x="-3" y="5" as="offset" />
          </mxGeometry>
        </mxCell>
        <mxCell id="S3E6IrGXpBOhaH5SuewV-15" style="edgeStyle=orthogonalEdgeStyle;rounded=0;orthogonalLoop=1;jettySize=auto;html=1;entryX=0.5;entryY=0;entryDx=0;entryDy=0;" edge="1" parent="1" source="S3E6IrGXpBOhaH5SuewV-6" target="S3E6IrGXpBOhaH5SuewV-2">
          <mxGeometry relative="1" as="geometry">
            <Array as="points">
              <mxPoint x="540" y="320" />
            </Array>
          </mxGeometry>
        </mxCell>
        <mxCell id="S3E6IrGXpBOhaH5SuewV-17" value="Sim" style="edgeLabel;html=1;align=center;verticalAlign=middle;resizable=0;points=[];" vertex="1" connectable="0" parent="S3E6IrGXpBOhaH5SuewV-15">
          <mxGeometry x="0.3889" y="6" relative="1" as="geometry">
            <mxPoint x="-6" y="-5" as="offset" />
          </mxGeometry>
        </mxCell>
        <mxCell id="S3E6IrGXpBOhaH5SuewV-6" value="&lt;font style=&quot;font-size: 10px;&quot;&gt;Entrada de dados&amp;nbsp;&lt;/font&gt;&lt;div&gt;&lt;font style=&quot;font-size: 10px;&quot;&gt;válidos&lt;/font&gt;&lt;/div&gt;" style="rhombus;whiteSpace=wrap;html=1;strokeColor=#0000FF;" vertex="1" parent="1">
          <mxGeometry x="360" y="280" width="120" height="80" as="geometry" />
        </mxCell>
        <mxCell id="S3E6IrGXpBOhaH5SuewV-13" style="edgeStyle=orthogonalEdgeStyle;rounded=0;orthogonalLoop=1;jettySize=auto;html=1;entryX=0.5;entryY=0;entryDx=0;entryDy=0;" edge="1" parent="1" source="S3E6IrGXpBOhaH5SuewV-11" target="S3E6IrGXpBOhaH5SuewV-6">
          <mxGeometry relative="1" as="geometry" />
        </mxCell>
        <mxCell id="S3E6IrGXpBOhaH5SuewV-11" value="Tela Inicial/login" style="rounded=1;whiteSpace=wrap;html=1;fillColor=#b1ddf0;strokeColor=#10739e;" vertex="1" parent="1">
          <mxGeometry x="360" y="170" width="120" height="60" as="geometry" />
        </mxCell>
        <mxCell id="S3E6IrGXpBOhaH5SuewV-23" style="edgeStyle=orthogonalEdgeStyle;rounded=0;orthogonalLoop=1;jettySize=auto;html=1;entryX=0.5;entryY=0;entryDx=0;entryDy=0;" edge="1" parent="1" source="S3E6IrGXpBOhaH5SuewV-19" target="S3E6IrGXpBOhaH5SuewV-22">
          <mxGeometry relative="1" as="geometry">
            <Array as="points">
              <mxPoint x="660" y="680" />
            </Array>
          </mxGeometry>
        </mxCell>
        <mxCell id="S3E6IrGXpBOhaH5SuewV-25" value="Sim" style="edgeLabel;html=1;align=center;verticalAlign=middle;resizable=0;points=[];" vertex="1" connectable="0" parent="S3E6IrGXpBOhaH5SuewV-23">
          <mxGeometry x="0.4857" y="-3" relative="1" as="geometry">
            <mxPoint x="3" y="-4" as="offset" />
          </mxGeometry>
        </mxCell>
        <mxCell id="S3E6IrGXpBOhaH5SuewV-24" style="edgeStyle=orthogonalEdgeStyle;rounded=0;orthogonalLoop=1;jettySize=auto;html=1;entryX=0.5;entryY=0;entryDx=0;entryDy=0;" edge="1" parent="1">
          <mxGeometry relative="1" as="geometry">
            <mxPoint x="481" y="680" as="sourcePoint" />
            <mxPoint x="421" y="760" as="targetPoint" />
            <Array as="points">
              <mxPoint x="421" y="680" />
            </Array>
          </mxGeometry>
        </mxCell>
        <mxCell id="S3E6IrGXpBOhaH5SuewV-30" value="Não" style="edgeLabel;html=1;align=center;verticalAlign=middle;resizable=0;points=[];" vertex="1" connectable="0" parent="S3E6IrGXpBOhaH5SuewV-24">
          <mxGeometry x="0.4143" y="-3" relative="1" as="geometry">
            <mxPoint x="2" y="1" as="offset" />
          </mxGeometry>
        </mxCell>
        <mxCell id="S3E6IrGXpBOhaH5SuewV-19" value="&lt;span style=&quot;font-size: 10px;&quot;&gt;Preenchimento&amp;nbsp;&lt;/span&gt;&lt;div&gt;&lt;span style=&quot;font-size: 10px;&quot;&gt;válido&lt;/span&gt;&lt;/div&gt;" style="rhombus;whiteSpace=wrap;html=1;strokeColor=#0000FF;" vertex="1" parent="1">
          <mxGeometry x="480" y="640" width="120" height="80" as="geometry" />
        </mxCell>
        <mxCell id="S3E6IrGXpBOhaH5SuewV-34" style="edgeStyle=orthogonalEdgeStyle;rounded=0;orthogonalLoop=1;jettySize=auto;html=1;entryX=0.5;entryY=1;entryDx=0;entryDy=0;" edge="1" parent="1" source="S3E6IrGXpBOhaH5SuewV-21" target="S3E6IrGXpBOhaH5SuewV-32">
          <mxGeometry relative="1" as="geometry">
            <Array as="points">
              <mxPoint x="300" y="790" />
            </Array>
          </mxGeometry>
        </mxCell>
        <mxCell id="S3E6IrGXpBOhaH5SuewV-21" value="Campos incompletos" style="rounded=1;whiteSpace=wrap;html=1;fillColor=#b1ddf0;strokeColor=#10739e;" vertex="1" parent="1">
          <mxGeometry x="360" y="760" width="120" height="60" as="geometry" />
        </mxCell>
        <mxCell id="S3E6IrGXpBOhaH5SuewV-35" style="edgeStyle=orthogonalEdgeStyle;rounded=0;orthogonalLoop=1;jettySize=auto;html=1;entryX=1;entryY=0.5;entryDx=0;entryDy=0;" edge="1" parent="1" source="S3E6IrGXpBOhaH5SuewV-22" target="S3E6IrGXpBOhaH5SuewV-2">
          <mxGeometry relative="1" as="geometry">
            <Array as="points">
              <mxPoint x="760" y="790" />
              <mxPoint x="760" y="550" />
            </Array>
          </mxGeometry>
        </mxCell>
        <mxCell id="S3E6IrGXpBOhaH5SuewV-22" value="Protocolo de atendimento" style="rounded=1;whiteSpace=wrap;html=1;fillColor=#b1ddf0;strokeColor=#10739e;" vertex="1" parent="1">
          <mxGeometry x="600" y="760" width="120" height="60" as="geometry" />
        </mxCell>
        <mxCell id="S3E6IrGXpBOhaH5SuewV-32" value="Tela de erro: Informações insuficientes" style="rounded=1;whiteSpace=wrap;html=1;fillColor=#b1ddf0;strokeColor=#10739e;" vertex="1" parent="1">
          <mxGeometry x="240" y="620" width="120" height="60" as="geometry" />
        </mxCell>
        <mxCell id="S3E6IrGXpBOhaH5SuewV-33" style="edgeStyle=orthogonalEdgeStyle;rounded=0;orthogonalLoop=1;jettySize=auto;html=1;entryX=0.008;entryY=0.633;entryDx=0;entryDy=0;entryPerimeter=0;" edge="1" parent="1" source="S3E6IrGXpBOhaH5SuewV-32" target="S3E6IrGXpBOhaH5SuewV-2">
          <mxGeometry relative="1" as="geometry">
            <Array as="points">
              <mxPoint x="300" y="558" />
            </Array>
          </mxGeometry>
        </mxCell>
      </root>
    </mxGraphModel>
  </diagram>
</mxfile>
